# xmcd
# 
# Track frame offsets:
#     150
#     14325
#     33037
#     50025
#     72175
#     98870
#     117157
#     136460
#     151857
#     168422
#     186847
#     205225
# 
# Disc length: 3001
# 
# Revision: 4
# Processed by: cddbd v1.5.2PL0 Copyright (c) Steve Scherf et al.
# Submitted via: fre:ac v1.0.17
# 
DISCID=9e0bb70c
DTITLE=Agnaldo Rayol - Todo O Sentimento
DYEAR=1997
DGENRE=Latin
TTITLE0=Creio Em Ti (I Believe)
TTITLE1=Sangrando
TTITLE2=Serenata Do Adeus (Participação Especial: Hebe Camargo)
TTITLE3=Todo O Sentimento
TTITLE4=O Ébrio
TTITLE5=Como Eu Te Amei
TTITLE6=Boa-Noite, Amor
TTITLE7=Se Todos Fossem Iguais A Você
TTITLE8=História De Um Amor
TTITLE9=Mia Gioconda
TTITLE10=E A Vida Continua
TTITLE11=Non Ti Scordar Di Me
EXTD=
EXTT0=
EXTT1=
EXTT2=
EXTT3=
EXTT4=
EXTT5=
EXTT6=
EXTT7=
EXTT8=
EXTT9=
EXTT10=
EXTT11=
PLAYORDER=
